<?xml version="1.0" encoding="utf-8"?>
<svg version="1.0" width="29.167px" height="70px" preserveAspectRatio="xMidYMid meet" viewBox="0 0 7 24" xmlns="http://www.w3.org/2000/svg">
  <g transform="matrix(0.007663, 0, 0, -0.007663, -15.699298, 31.163565)" fill="#000000" stroke="none">
    <path d="M2383 4064 c-29 -7 -32 -31 -38 -353 -2 -145 -7 -315 -11 -377 l-7 -113 -70 -88 c-76 -96 -126 -191 -154 -293 -17 -60 -18 -133 -18 -950 0 -875 0 -885 21 -920 l20 -35 375 0 374 0 20 40 c20 39 20 60 20 910 0 798 -1 876 -18 945 -29 124 -68 197 -178 332 l-47 57 -6 103 c-4 57 -10 243 -14 415 -4 172 -11 315 -15 319 -9 9 -221 15 -254 8z m368 -1805 c38 -34 69 -66 69 -72 0 -6 -9 -20 -19 -31 -11 -12 -26 -39 -33 -62 -12 -34 -12 -44 -1 -61 17 -25 1 -69 -29 -78 -10 -4 -18 -12 -18 -20 0 -7 -11 -26 -24 -42 -13 -15 -26 -38 -30 -50 -4 -12 -15 -25 -26 -28 -10 -3 -25 -17 -34 -30 -23 -34 -59 -32 -108 7 -34 27 -43 30 -60 19 -22 -14 -58 -6 -58 13 0 6 -12 12 -27 11 -37 0 -42 29 -11 63 21 25 20 24 -9 -2 -27 -24 -35 -27 -48 -16 -8 7 -15 18 -15 25 0 18 79 105 95 105 20 0 37 -34 24 -47 -6 -6 1 -8 21 -5 44 6 50 -21 14 -61 l-29 -32 32 29 c19 17 38 26 47 23 18 -7 22 -42 6 -52 -18 -11 -11 -24 33 -54 32 -22 47 -27 60 -20 26 15 20 31 -23 63 -22 17 -40 36 -40 43 0 20 9 16 56 -22 47 -38 71 -44 81 -18 5 12 -7 28 -40 57 -26 23 -47 44 -47 49 0 16 23 6 65 -28 l43 -36 17 23 c15 22 15 24 -24 59 -37 33 -52 59 -35 59 4 0 26 -15 48 -34 32 -26 46 -32 59 -25 9 6 17 16 17 23 0 8 -39 47 -86 87 -82 70 -88 74 -128 70 -92 -10 -121 -7 -121 13 0 23 41 55 86 67 25 6 14 7 -39 4 -41 -3 -82 -10 -92 -15 -22 -12 -90 -133 -90 -161 0 -15 6 -19 26 -17 16 2 31 -4 38 -14 9 -15 3 -25 -35 -63 -31 -32 -50 -44 -62 -39 -21 8 -22 47 -2 64 27 22 17 48 -30 76 -25 14 -45 31 -45 38 0 17 103 189 116 193 6 2 25 -8 41 -21 29 -24 34 -25 98 -17 64 7 118 3 157 -13 11 -5 24 3 45 28 15 20 34 36 42 36 7 0 44 -27 82 -61z" style="fill: rgb(42, 139, 242);"/>
    <path d="M2652 2278 c-21 -21 -14 -33 45 -81 55 -44 58 -45 76 -29 19 16 17 19 -39 70 -62 57 -64 58 -82 40z" style="fill: rgb(42, 139, 242);"/>
    <path d="M2251 2212 c-54 -93 -55 -95 -30 -110 26 -16 27 -15 74 71 l38 69 -21 20 -20 20 -41 -70z" style="fill: rgb(42, 139, 242);"/>
  </g>
</svg>